<svg fill="none" height="19" viewBox="0 0 101 19" width="101" xmlns="http://www.w3.org/2000/svg"><g fill="#000"><path d="m12.704.00952148h-12.704v6.03528852c0 .93564.75837 1.69412 1.69387 1.69412h9.31623c.9355 0 1.6939-.75848 1.6939-1.69412z"/><path d="m1.69387 10.2801c-.9355 0-1.69387.7585-1.69387 1.6941v6.0353h12.704v-6.0353c0-.9356-.7584-1.6941-1.6939-1.6941z"/><path d="m22.8558 18.0096h6.4409v-6.3061h5.8408v6.3061h6.4409v-18.00007852h-6.4409v6.30614852h-5.8408v-6.30614852h-6.4409z"/><path d="m49.9983 18.0096h6.4409v-6.5388l8.0694-11.46127852h-7.0041l-4.2 6.34288852h-.0123l-1.5184-2.25307-2.7428-4.08981852h-7.1388l8.1061 11.46127852z"/><path clip-rule="evenodd" d="m71.2825 18.0096h-6.4408v-18.00007852h10.1511c1.2571 0 2.4081.09795952 3.453.29387752 1.0449.187756 1.9429.51837 2.6939.991841.7592.47347 1.347 1.11429 1.7633 1.92246.4163.8.6245 1.81225.6245 3.03675v.02449c0 1.22449-.2041 2.24083-.6123 3.04899-.4081.80817-.9836 1.44897-1.7265 1.92247-.7347.4735-1.6204.8082-2.6572 1.0041-1.0367.1877-2.1836.2816-3.4408.2816h-3.8082zm0-13.29802v3.13471h3.3674c.3673 0 .6898-.02857.9674-.08571.2775-.06531.5061-.16327.6857-.29388s.3143-.29388.4041-.4898c.0897-.19592.1346-.42857.1346-.69796v-.02449c0-.26939-.0449-.50205-.1346-.69797-.0898-.19591-.2245-.3551-.4041-.47755s-.4082-.21224-.6857-.26939c-.2776-.0653-.6001-.09796-.9674-.09796z" fill-rule="evenodd"/><path d="m84.4015.00952148v18.00007852h16.4935v-4.7632h-10.0479v-1.9806h8.7051v-4.63786h-8.7051v-1.85516h10.0479v-4.76325852z"/></g></svg>